HIERARCHY
ROOT root
{
	OFFSET 0.000000 0.000000 0.000000
	CHANNELS 6 Xposition Yposition Zposition Zrotation Yrotation Xrotation
	JOINT lhip
	{
		OFFSET 0.058581 -0.082280 -0.017664
		CHANNELS 3 Zrotation Yrotation Xrotation
		JOINT lknee
		{
			OFFSET 0.043451 -0.386469 0.008037
			CHANNELS 3 Zrotation Yrotation Xrotation
			JOINT lankle
			{
				OFFSET -0.014790 -0.426874 -0.037428
				CHANNELS 3 Zrotation Yrotation Xrotation
				JOINT ltoe
				{
					OFFSET 0.041054 -0.060286 0.122042
					CHANNELS 3 Zrotation Yrotation Xrotation
					End Site
					{
						OFFSET 0.000000 0.000000 0.000000
					}
				}
			}
		}
	}
	JOINT rhip
	{
		OFFSET -0.060310 -0.090513 -0.013543
		CHANNELS 3 Zrotation Yrotation Xrotation
		JOINT rknee
		{
			OFFSET -0.043257 -0.383688 -0.004843
			CHANNELS 3 Zrotation Yrotation Xrotation
			JOINT rankle
			{
				OFFSET 0.019056 -0.420046 -0.034562
				CHANNELS 3 Zrotation Yrotation Xrotation
				JOINT rtoe
				{
					OFFSET -0.034840 -0.062106 0.130323
					CHANNELS 3 Zrotation Yrotation Xrotation
					End Site
					{
						OFFSET 0.000000 0.000000 0.000000
					}
				}
			}
		}
	}
	JOINT lowerback
	{
		OFFSET 0.004439 0.124404 -0.038385
		CHANNELS 3 Zrotation Yrotation Xrotation
		JOINT upperback
		{
			OFFSET 0.004488 0.137956 0.026820
			CHANNELS 3 Zrotation Yrotation Xrotation
			JOINT chest
			{
				OFFSET -0.002265 0.056032 0.002855
				CHANNELS 3 Zrotation Yrotation Xrotation
				JOINT lowerneck
				{
					OFFSET -0.013390 0.211636 -0.033468
					CHANNELS 3 Zrotation Yrotation Xrotation
					JOINT upperneck
					{
						OFFSET 0.010113 0.088937 0.050410
						CHANNELS 3 Zrotation Yrotation Xrotation
						End Site
						{
							OFFSET 0.000000 0.000000 0.000000
						}
					}
				}
				JOINT lclavicle
				{
					OFFSET 0.071702 0.114000 -0.018898
					CHANNELS 3 Zrotation Yrotation Xrotation
					JOINT lshoulder
					{
						OFFSET 0.122921 0.045205 -0.019046
						CHANNELS 3 Zrotation Yrotation Xrotation
						JOINT lelbow
						{
							OFFSET 0.255332 -0.015649 -0.022946
							CHANNELS 3 Zrotation Yrotation Xrotation
							JOINT lwrist
							{
								OFFSET 0.265709 0.012698 -0.007375
								CHANNELS 3 Zrotation Yrotation Xrotation
								End Site
								{
									OFFSET 0.000000 0.000000 0.000000
								}
							}
						}
					}
				}
				JOINT rclavicle
				{
					OFFSET -0.082954 0.112472 -0.023707
					CHANNELS 3 Zrotation Yrotation Xrotation
					JOINT rshoulder
					{
						OFFSET -0.113228 0.046853 -0.008472
						CHANNELS 3 Zrotation Yrotation Xrotation
						JOINT relbow
						{
							OFFSET -0.260127 -0.014369 -0.031269
							CHANNELS 3 Zrotation Yrotation Xrotation
							JOINT rwrist
							{
								OFFSET -0.269108 0.006794 -0.006027
								CHANNELS 3 Zrotation Yrotation Xrotation
								End Site
								{
									OFFSET 0.000000 0.000000 0.000000
								}
							}
						}
					}
				}
			}
		}
	}
}
MOTION
Frames: 8
Frame Time: 0.033333
0.320558 2.080084 0.975667 3.891082 -1.485319 85.462812 -7.771931 -0.067344 9.110437 -0.908854 -17.878410 3.716410 8.863250 8.923830 -24.019377 0.000000 -0.000000 0.000000 -3.412440 -0.290762 -28.379635 -1.499057 -12.341710 28.172289 7.369861 -15.760577 -4.709098 0.000000 -0.000000 0.000000 -3.035870 -3.838510 14.274756 0.123691 -1.284465 2.994962 -1.188037 -2.670123 2.400205 -4.410033 9.103495 6.912905 -7.138265 2.119444 9.293142 -22.933100 -6.805928 1.858222 -47.592750 -17.923922 11.806809 9.898688 -41.769128 9.529976 4.264097 -7.918635 2.553104 28.023800 6.191455 0.821609 53.462696 10.984178 15.053398 -20.745109 36.582591 -12.981479 5.750683 5.842990 -8.303350 
0.320556 2.051596 0.969468 3.604828 -2.117961 86.179249 -8.253254 0.654309 10.137379 -1.007857 -17.790801 3.891097 8.661015 8.876383 -25.686761 0.000000 -0.000000 0.000000 -2.887528 0.047942 -28.836343 -1.256268 -11.015195 17.124628 8.787330 -13.494387 -3.672362 0.000000 -0.000000 0.000000 -3.125796 -3.762159 13.806156 -0.041182 -1.413685 3.219944 -1.021228 -2.784163 2.414152 -4.217833 9.274611 7.382294 -6.961089 1.864647 8.208694 -23.212998 -5.475480 2.245754 -48.668681 -17.228996 11.947413 9.539260 -38.296218 9.153625 5.518929 -7.504360 1.903905 28.649425 5.241718 1.110068 56.672526 10.810145 15.707505 -19.109182 31.547264 -12.378492 4.243014 5.009203 -9.251106 
0.321206 2.021652 0.962370 3.507133 -3.047581 87.559945 -9.700513 -1.131643 10.729971 -1.178412 -17.334543 3.969591 8.329646 10.985325 -27.393611 0.000000 -0.000000 0.000000 -3.659522 1.641856 -29.431511 -0.894874 -9.538949 8.515418 10.822382 -14.250169 -3.884681 0.000000 -0.000000 0.000000 -3.487017 -3.550774 12.133133 0.081773 -1.708749 3.495983 -0.661978 -2.908516 2.745778 -5.647713 8.142014 7.686978 -5.636900 2.935516 7.034913 -23.863854 -4.460533 3.546771 -49.295149 -16.808791 12.868742 8.964853 -34.313310 7.765308 5.059709 -6.950439 1.998897 29.027799 4.823565 1.939040 58.381593 11.285741 16.927713 -18.084598 25.494987 -16.063776 2.985221 3.548349 -10.669166 
0.321679 1.980898 0.954834 3.994606 -3.179262 87.440819 -9.739888 -0.749346 13.005872 -1.631057 -17.795572 5.312763 7.701904 11.510172 -29.490244 0.000000 -0.000000 0.000000 -3.763369 2.345898 -29.522158 -0.680166 -10.212735 9.316964 11.007051 -14.602444 -4.186061 0.000000 -0.000000 0.000000 -2.879928 -4.269087 12.266698 0.609687 -1.654465 3.863841 -0.493952 -3.161493 2.723798 -4.780396 8.063546 6.808346 -6.284836 2.746006 6.884995 -23.794872 -3.853732 4.389927 -50.378484 -15.008471 12.873603 7.045882 -29.281483 9.928552 -0.986402 -7.914223 1.201457 28.960744 4.632174 1.925081 58.130218 11.022123 16.309680 -16.754984 20.089301 -16.406254 6.759045 3.048578 -12.164451 
0.321505 1.955952 0.952260 4.479093 -2.729263 87.191240 -9.252969 -0.718854 14.268484 -1.927417 -18.060893 6.775206 7.177521 11.866396 -30.318878 0.000000 -0.000000 0.000000 -3.497701 3.049928 -29.556331 -0.867304 -10.839160 12.437335 9.427877 -16.169634 -1.291151 0.000000 -0.000000 0.000000 -2.005693 -4.954098 12.715788 1.061392 -1.602338 4.061455 -0.373857 -3.406898 2.639092 -4.331887 7.501892 5.573190 -6.595811 3.202910 6.974769 -23.934009 -3.386857 4.748137 -50.594570 -13.601069 12.354733 6.679109 -27.127919 10.976655 -4.745397 -8.704891 1.992086 28.642165 4.402956 1.507413 56.759911 10.539040 15.726622 -16.584114 18.677883 -15.978423 9.858686 3.163659 -11.930768 
0.320896 1.922057 0.953180 5.052546 -1.876660 86.988995 -8.513326 -1.077979 15.298937 -2.407845 -18.285134 9.803257 5.829072 12.464073 -30.268734 0.000000 -0.000000 0.000000 -3.301836 3.826532 -29.606337 -0.952467 -11.675648 15.961028 6.669126 -19.098278 3.037687 0.000000 -0.000000 0.000000 -0.542881 -5.870747 13.174556 1.688733 -1.615696 4.350517 -0.288340 -3.691997 2.578006 -3.799619 6.286975 4.161951 -6.711786 4.194801 6.445341 -24.358720 -2.062789 4.840213 -49.936554 -11.592805 11.104099 6.973629 -25.565606 10.602594 -8.060426 -8.778222 2.581049 28.319447 3.598470 0.625623 53.654813 9.736450 14.785377 -17.101934 19.314266 -16.421747 12.569959 3.266020 -11.559682 
0.319045 1.885768 0.958062 5.147543 -1.135093 87.244529 -7.728018 -1.243388 15.020016 -3.255156 -17.880659 14.333719 3.369234 12.073395 -28.887550 0.000000 -0.000000 0.000000 -2.744149 4.089665 -29.070643 -0.322795 -11.514823 18.471476 4.836647 -18.653894 3.974040 0.000000 -0.000000 0.000000 0.605366 -6.230591 12.887696 2.388352 -1.740078 4.402806 -0.169474 -3.831442 2.338956 -2.762622 5.532113 4.460280 -6.471472 4.389753 5.121397 -24.693592 -0.090769 4.479552 -47.828290 -8.908889 9.138333 7.872055 -25.670628 8.357417 -10.931082 -8.555804 2.765555 27.829581 1.898582 -0.410169 49.700023 8.973539 12.809836 -18.191427 22.126304 -17.100443 14.038999 3.458637 -11.862670 
0.314980 1.847547 0.964800 4.742782 -0.062900 86.847324 -5.498345 0.768943 13.848114 -4.625300 -18.422824 21.305096 -0.078334 9.317602 -25.205988 0.000000 -0.000000 0.000000 -0.260249 2.680855 -26.783362 -0.851717 -11.161182 19.854461 3.818001 -15.383623 3.140004 0.000000 -0.000000 0.000000 1.624767 -6.161165 13.212053 3.058714 -1.659442 3.633809 -0.059940 -3.743703 2.723488 -0.114139 5.917775 4.828577 -6.816168 2.883291 4.736765 -23.389319 3.091686 3.168093 -44.527536 -6.822341 6.713795 7.752973 -27.470273 8.425867 -11.630510 -9.752235 0.367680 26.697894 -0.717164 -2.371121 45.476722 8.865492 9.706501 -18.790705 25.888723 -15.430692 14.513624 4.857093 -13.645303 
